<?xml version="1.0" standalone="no"?>
<!DOCTYPE svg PUBLIC "-//W3C//DTD SVG 20010904//EN"
 "http://www.w3.org/TR/2001/REC-SVG-20010904/DTD/svg10.dtd">
<svg version="1.0" xmlns="http://www.w3.org/2000/svg"
 width="300.000000pt" height="300.000000pt" viewBox="0 0 300.000000 300.000000"
 preserveAspectRatio="xMidYMid meet">
<metadata>
Created by potrace 1.10, written by Peter Selinger 2001-2011
</metadata>
<g transform="translate(0.000000,300.000000) scale(0.100000,-0.100000)"
fill="#000000" stroke="none">
<path d="M1430 2442 c0 -4 -41 -41 -92 -82 -50 -41 -98 -82 -107 -91 -9 -8
-38 -33 -66 -55 -27 -21 -52 -42 -55 -45 -4 -4 -69 -58 -199 -164 -14 -11 -43
-36 -65 -56 -23 -19 -84 -71 -136 -114 -52 -43 -113 -93 -135 -111 -22 -18
-87 -72 -145 -120 -58 -48 -113 -92 -122 -98 -25 -15 -22 -30 4 -22 13 4 111
18 218 32 340 44 414 54 460 63 l45 8 -50 3 c-67 3 -74 3 -190 -15 -55 -8
-125 -17 -155 -21 -30 -3 -93 -12 -140 -20 -66 -11 -86 -11 -92 -1 -9 13 5 26
116 117 38 30 76 62 86 70 10 8 27 22 37 30 60 48 139 116 145 125 4 5 8 7 8
4 0 -4 15 7 33 25 36 35 76 68 247 207 36 29 67 57 68 61 2 4 8 8 14 8 6 0 20
9 32 21 33 32 91 82 127 109 18 14 38 31 45 38 22 22 26 13 20 -45 l-6 -58 15
40 c9 22 13 45 11 52 -3 6 -2 13 2 15 8 4 42 75 42 88 0 6 -4 10 -10 10 -5 0
-10 -4 -10 -8z"/>
<path d="M1590 2446 c0 -11 69 -209 70 -199 0 6 3 20 6 30 5 15 4 15 -5 3 -9
-12 -11 -11 -12 10 -1 14 -1 29 0 34 1 4 -3 14 -9 21 -9 11 -6 12 12 8 19 -5
121 -82 153 -117 6 -6 44 -38 85 -70 87 -69 81 -64 184 -156 44 -38 83 -70 88
-70 5 0 24 -15 43 -34 19 -19 41 -38 48 -43 8 -4 36 -26 62 -48 111 -94 141
-119 251 -209 55 -45 97 -87 83 -82 -8 3 -41 7 -74 11 -100 9 -447 52 -497 60
-14 3 -36 1 -48 -3 -28 -10 105 -31 485 -77 72 -9 152 -20 179 -25 52 -11 73
-5 43 12 -10 5 -49 35 -86 66 -38 31 -126 104 -196 162 -71 58 -133 110 -139
115 -6 6 -49 42 -96 80 -47 38 -87 72 -90 75 -3 3 -43 37 -90 75 -47 38 -90
74 -96 80 -6 5 -30 26 -54 45 -101 82 -223 185 -267 228 -23 21 -33 27 -33 18z"/>
<path d="M1450 2383 c-5 -21 -21 -81 -34 -133 -24 -95 -129 -475 -166 -602
-18 -58 -24 -67 -48 -72 -21 -4 -220 -26 -238 -26 -2 0 -4 -4 -4 -9 0 -9 -53
-105 -127 -230 -34 -56 -40 -72 -26 -68 10 3 151 51 313 107 162 56 306 105
320 109 l25 7 0 477 c0 262 -1 477 -2 477 -1 0 -7 -17 -13 -37z m-11 -548 l3
-344 -29 -7 c-15 -4 -32 -10 -38 -14 -5 -4 -89 -33 -185 -65 -96 -31 -183 -61
-192 -66 -10 -5 -26 -9 -36 -9 -10 0 -22 -4 -28 -9 -5 -5 -25 -12 -44 -16 -23
-4 -30 -3 -22 3 8 5 14 13 14 18 1 15 32 78 46 92 6 7 12 18 12 24 0 14 53 86
68 93 8 3 10 0 6 -6 -4 -8 -1 -8 12 -1 11 5 48 12 84 16 119 13 133 19 152 73
9 27 20 66 24 88 4 22 13 50 21 62 8 12 12 26 9 31 -2 4 8 47 25 96 16 48 29
95 29 104 0 21 53 182 60 182 3 0 7 -155 9 -345z"/>
<path d="M1574 1939 l1 -472 55 -18 c30 -10 174 -59 320 -109 329 -114 309
-108 289 -84 -9 10 -28 39 -41 64 -85 153 -132 230 -142 230 -26 1 -248 29
-251 32 -1 2 -21 75 -45 163 -23 88 -64 237 -90 330 -27 94 -56 204 -66 245
-9 41 -20 79 -24 83 -4 4 -6 -204 -6 -464z m69 151 c13 -41 33 -111 43 -155
10 -44 21 -82 24 -85 3 -3 12 -34 19 -70 7 -36 18 -68 23 -71 6 -4 8 -14 5
-23 -4 -9 4 -40 17 -70 27 -60 30 -61 186 -73 60 -4 78 -9 93 -27 22 -27 47
-75 47 -92 0 -7 3 -14 8 -16 4 -1 20 -27 35 -55 l28 -53 -33 7 c-18 3 -37 9
-43 13 -5 3 -64 23 -130 44 -66 21 -133 44 -150 51 -29 13 -78 29 -82 27 -2
-1 -27 10 -58 23 -30 14 -55 21 -55 17 0 -4 -5 0 -10 8 -12 17 -10 695 1 682
4 -4 18 -41 32 -82z"/>
<path d="M1362 2203 c-16 -38 -32 -117 -23 -107 11 13 44 124 38 130 -2 2 -9
-8 -15 -23z"/>
<path d="M1700 2084 c0 -15 33 -104 37 -100 8 7 -20 106 -29 106 -4 0 -8 -3
-8 -6z"/>
<path d="M1310 2023 c-8 -32 -17 -60 -21 -63 -5 -3 -11 -25 -15 -49 -5 -33 -4
-42 5 -37 7 4 11 15 10 24 -2 10 4 33 13 52 15 34 33 130 25 130 -2 0 -10 -26
-17 -57z"/>
<path d="M1756 1873 c11 -52 36 -124 41 -120 2 3 -3 26 -11 51 -9 26 -15 50
-15 54 3 21 -2 42 -11 42 -6 0 -8 -12 -4 -27z"/>
<path d="M1827 1614 c4 -12 17 -15 49 -12 24 2 44 0 44 -4 0 -5 15 -7 33 -7
31 2 31 2 4 6 -16 3 -31 11 -34 19 -4 10 -9 12 -18 4 -9 -7 -21 -7 -39 0 -38
14 -46 13 -39 -6z"/>
<path d="M1085 1603 c-50 -13 -50 -13 30 -8 43 3 84 10 89 15 14 14 -51 10
-119 -7z"/>
<path d="M508 1089 c4 -57 2 -61 -15 -54 -58 26 -113 -8 -113 -71 0 -56 26
-73 109 -72 l71 0 0 129 0 129 -27 0 c-28 0 -28 0 -25 -61z m-15 -94 c36 -26
-3 -83 -40 -59 -25 16 -28 43 -6 59 10 8 20 14 23 14 3 0 13 -6 23 -14z"/>
<path d="M1022 1015 c3 -145 20 -169 28 -39 l5 86 60 -91 c33 -50 62 -91 65
-91 3 0 5 56 5 125 0 91 -3 125 -12 125 -8 0 -13 -27 -15 -87 l-3 -86 -60 91
c-33 50 -64 91 -68 91 -4 1 -6 -55 -5 -124z"/>
<path d="M2307 1028 c-64 -155 -61 -148 -44 -148 9 0 20 15 27 35 11 34 13 35
66 35 52 0 54 -1 68 -35 14 -33 36 -48 36 -25 0 6 -20 59 -45 118 -25 58 -45
112 -45 119 0 35 -20 3 -63 -99z m74 -3 l17 -45 -39 0 c-21 0 -39 1 -39 3 0
16 34 97 38 92 4 -3 14 -26 23 -50z"/>
<path d="M205 1010 l0 -120 68 0 c65 0 67 1 67 26 0 24 -3 26 -42 22 -41 -3
-43 -1 -46 25 -3 28 -2 29 40 25 38 -2 43 0 46 20 3 20 -1 22 -42 22 -42 0
-46 2 -46 25 0 23 3 25 48 25 44 0 49 2 47 23 -1 20 -7 22 -71 25 l-69 3 0
-121z"/>
<path d="M590 1123 c0 -14 95 -243 101 -243 5 0 77 163 106 238 3 6 -1 12 -10
12 -13 0 -60 -97 -82 -168 -9 -31 -12 -27 -55 75 -20 48 -41 88 -48 91 -7 2
-12 0 -12 -5z"/>
<path d="M830 1010 l0 -120 65 0 c36 0 68 0 72 -1 4 0 9 4 11 10 2 7 -18 11
-57 11 l-61 0 0 35 c0 50 0 50 58 47 42 -3 52 -1 52 12 0 13 -11 16 -57 16
l-58 0 0 37 0 38 58 5 c82 7 76 24 -10 28 l-73 3 0 -121z"/>
<path d="M1217 1124 c-11 -12 3 -24 28 -24 24 0 24 -1 27 -107 4 -142 22 -142
26 -1 l3 107 26 3 c15 2 28 9 31 16 3 9 -15 12 -65 12 -39 0 -73 -3 -76 -6z"/>
<path d="M1380 1039 c0 -104 8 -125 57 -145 41 -18 97 -5 113 26 6 10 10 62
10 114 0 75 -3 96 -14 96 -11 0 -12 -18 -8 -89 4 -81 3 -90 -17 -110 -25 -25
-58 -27 -89 -5 -20 14 -22 23 -22 110 0 77 -3 94 -15 94 -12 0 -15 -17 -15
-91z"/>
<path d="M1612 1010 c2 -72 7 -120 13 -120 6 0 10 22 10 48 0 54 17 59 50 14
41 -55 64 -77 71 -69 4 4 -7 27 -24 51 -36 49 -38 56 -19 56 23 0 47 35 47 68
0 44 -39 72 -102 72 l-49 0 3 -120z m117 68 c16 -44 -5 -68 -60 -68 l-36 0 1
45 1 45 43 0 c35 0 44 -4 51 -22z"/>
<path d="M1800 1010 l0 -120 77 0 c88 0 91 17 3 22 l-55 3 0 40 0 40 58 -3
c47 -3 57 -1 57 12 0 13 -12 16 -59 16 l-58 0 1 40 1 39 60 3 c84 4 75 22 -12
26 l-73 3 0 -121z"/>
<path d="M2088 1010 c-2 -84 0 -121 9 -124 19 -8 23 4 16 50 l-6 44 40 0 c55
0 93 31 93 75 0 47 -37 75 -101 75 l-48 0 -3 -120z m111 81 c7 -5 14 -21 14
-36 0 -33 -17 -45 -65 -45 l-38 0 0 45 0 45 38 0 c20 0 43 -4 51 -9z"/>
<path d="M2492 1010 c2 -72 7 -120 13 -120 6 0 10 20 10 45 0 60 21 60 64 0
36 -50 47 -59 61 -50 6 4 -4 24 -25 48 -38 44 -43 57 -22 57 23 0 47 35 47 68
0 44 -39 72 -102 72 l-49 0 3 -120z m119 66 c18 -40 -3 -66 -54 -66 l-42 0 0
45 0 45 43 0 c35 0 44 -4 53 -24z"/>
<path d="M2682 1010 c2 -74 7 -119 13 -118 6 2 9 24 9 51 -1 26 2 47 6 47 4 0
24 -25 44 -55 20 -30 43 -55 51 -55 22 0 20 6 -31 71 l-45 59 37 48 c59 74 58
72 38 72 -12 0 -32 -21 -54 -55 -19 -30 -38 -55 -43 -55 -4 0 -4 25 -1 55 6
47 4 55 -10 55 -15 0 -16 -13 -14 -120z"/>
</g>
</svg>
